<svg width="121" height="37" viewBox="0 0 121 37" fill="none" xmlns="http://www.w3.org/2000/svg">
<path d="M44.3902 1.05203C45.2533 0.912185 46.119 0.752097 46.9955 0.740074C44.4684 1.12859 41.9692 1.743 39.5819 2.66177C37.3801 3.50841 35.3011 4.66573 33.4229 6.08818C31.675 7.38977 30.1095 8.90904 28.4487 10.315C26.5794 11.8602 24.5359 13.1859 22.4238 14.3767C17.8945 16.9084 13.0525 18.8428 8.12467 20.4557C5.99985 21.141 3.85723 21.7756 1.69174 22.3223C1.37203 22.3938 1.05868 22.5039 0.730074 22.5242C1.96505 22.2243 3.17841 21.8389 4.3975 21.4808C9.56113 19.8995 14.6421 17.9942 19.439 15.5075C22.8242 13.7446 26.0709 11.6755 28.9171 9.12671C29.5953 8.54204 30.2067 7.88586 30.8938 7.31005C34.6966 4.0298 39.4573 1.94169 44.3902 1.05203Z" fill="#F55229"/>
<path d="M56.3681 1.45257C61.8445 1.09506 67.3424 1.51774 72.7673 2.28148C74.1853 2.38969 75.5099 2.93196 76.8453 3.37363C81.0295 4.80241 85.1692 6.37419 89.1823 8.22882C85.7552 7.92383 82.3115 7.82322 78.871 7.81436C74.7593 7.79601 70.6482 7.9156 66.5422 8.11745C65.5647 8.17124 64.5756 8.20224 63.6089 8.0238C62.8411 7.88206 62.0841 7.59099 61.4828 7.08415C59.8487 5.62564 58.2965 4.06714 56.5315 2.76175C56.2264 2.52257 55.8463 2.35868 55.6276 2.02648C55.5431 1.91575 55.5279 1.73415 55.6569 1.64999C55.8609 1.50192 56.1247 1.48104 56.3681 1.45257Z" fill="#F55229"/>
<path d="M47.6006 2.4441C48.9983 2.3011 50.431 2.36817 51.7842 2.76681C53.5842 3.27745 55.2082 4.31012 56.5296 5.61867C57.64 6.70956 58.5419 7.99406 59.2963 9.34881C53.8848 9.56711 48.4727 9.76643 43.0612 9.9879C42.3175 8.37688 41.3571 6.8437 40.091 5.58767C39.8825 5.36873 39.594 5.19535 39.5012 4.89226C39.4846 4.65371 39.749 4.5512 39.9264 4.46325C40.841 4.08043 41.7817 3.76404 42.7287 3.47171C44.3184 2.99081 45.9443 2.60546 47.6006 2.4441Z" fill="#F55229"/>
<path d="M37.0096 5.8085C37.3662 5.63323 37.7145 5.38771 38.1251 5.37189C38.4397 5.4048 38.6819 5.63639 38.9189 5.82432C39.6137 6.44759 40.1539 7.2183 40.6669 7.9909C40.9522 8.4313 41.2243 8.87993 41.4753 9.34121C41.5605 9.5089 41.6578 9.71391 41.5726 9.90058C41.4467 10.0923 41.188 10.0702 40.9872 10.0759C39.5037 10.0562 38.0202 10.0822 36.5373 10.1258C35.118 10.1885 33.6949 10.265 32.2909 10.4922C31.7799 10.5808 31.2618 10.677 30.7864 10.8915C31.8682 9.05331 33.5564 7.63972 35.4123 6.61654C35.931 6.32104 36.4738 6.07173 37.0096 5.8085Z" fill="#F55229"/>
<path d="M71.4338 9.03179C74.676 8.95333 77.9182 8.8698 81.1579 8.72047C84.6537 8.60215 88.159 8.6515 91.6434 8.97294C94.6574 9.23554 97.6663 9.55572 100.666 9.9493C102.248 10.1613 103.828 10.3891 105.393 10.701C107.713 11.1496 110.058 11.6071 112.233 12.5563C112.887 12.8461 113.527 13.1726 114.133 13.5516C112.899 13.0777 111.632 12.6733 110.331 12.4259C109.778 12.3133 109.216 12.2582 108.663 12.1488C108.035 12.0969 107.404 12.1538 106.776 12.1462C104.821 12.1614 102.86 12.2228 100.921 12.4873C100.668 12.5272 100.375 12.5727 100.217 12.7967C100.077 13.0176 100.183 13.2878 100.283 13.5023C100.956 14.6817 101.558 15.8992 102.182 17.1046C102.609 17.9544 103.055 18.7953 103.469 19.6514C101.771 16.9578 99.4295 14.676 96.7161 13.0024C96.2521 12.7183 95.778 12.4487 95.2854 12.2171C94.6155 11.9102 93.8909 11.7425 93.165 11.628C91.7686 11.4483 90.3913 11.1515 89.0031 10.9231C82.3827 9.78098 75.6707 9.11152 68.9499 9.1014C69.7768 9.04381 70.6056 9.05584 71.4338 9.03179Z" fill="#F55229"/>
<path d="M87.9556 12.6885C89.0044 12.9075 90.0614 13.2871 90.8667 14.0148C91.3332 14.428 91.6777 14.9791 91.8264 15.584C91.925 15.9814 91.8735 16.4275 91.6262 16.7629C91.3275 17.1729 90.8502 17.4108 90.3773 17.564C90.8108 17.2349 91.2576 16.8629 91.4394 16.332C91.6148 15.8359 91.4508 15.2885 91.1457 14.8798C90.669 14.2318 89.9927 13.7649 89.3076 13.3593C88.8722 13.1061 88.4196 12.8834 87.9556 12.6885Z" fill="#F55229"/>
<path d="M108.119 12.6847C108.41 12.6487 108.706 12.6341 108.999 12.6657C110.382 12.9435 111.782 13.1827 113.127 13.6231C113.52 13.7522 113.913 13.9098 114.234 14.1768C114.662 14.5128 114.937 15.0019 115.113 15.5087C115.424 16.4168 115.749 17.3222 115.974 18.2562C116.064 18.6548 116.168 19.0997 115.96 19.4806C115.839 19.7255 115.555 19.8463 115.291 19.8292C112.648 19.6293 109.997 19.5255 107.347 19.4831C106.668 19.4553 105.966 19.5477 105.312 19.323C104.577 19.0712 104.042 18.4663 103.609 17.8506C102.901 16.8243 102.268 15.7473 101.68 14.6501C101.497 14.2793 101.327 13.8541 101.433 13.4371C101.516 13.1315 101.845 12.9954 102.137 12.9758C104.125 12.7809 106.126 12.7828 108.119 12.6847Z" fill="#F55229"/>
<path d="M86.3209 12.7531C87.3556 12.6708 88.3351 13.1372 89.2014 13.651C89.7544 13.9863 90.2908 14.3812 90.6652 14.9158C90.9696 15.3499 91.126 15.9017 91.0275 16.4281C90.8845 16.9021 90.4497 17.2299 89.9876 17.3672C89.3978 17.5405 88.7654 17.5165 88.1667 17.4026C86.7499 17.1292 85.5257 16.1054 84.9518 14.7969C84.7732 14.4039 84.7465 13.9098 85.0312 13.5592C85.356 13.1663 85.7908 12.7999 86.3209 12.7531Z" fill="#F55229"/>
<path d="M93.0729 12.7803C94.0968 12.6069 95.1233 13.0068 95.9553 13.5795C96.4879 13.942 96.9596 14.385 97.3956 14.8557C97.7947 15.2645 98.0496 15.7973 98.1901 16.3459C98.288 16.7869 98.2943 17.2988 98.0032 17.6728C97.66 18.1043 97.067 18.2435 96.5388 18.2322C95.1214 18.098 93.7758 17.3336 92.9394 16.1864C92.6349 15.7745 92.3896 15.3196 92.2053 14.8431C92.0559 14.4052 92.0152 13.9085 92.2008 13.475C92.3527 13.1182 92.6902 12.8499 93.0729 12.7803Z" fill="#F55229"/>
<path d="M95.4551 12.934C96.3576 13.4219 97.2596 13.9338 98.035 14.6121C98.4253 14.9646 98.8003 15.36 99.0068 15.8511C99.1664 16.2181 99.1848 16.6585 99.0005 17.0198C98.8606 17.3165 98.6127 17.5418 98.3572 17.7399C98.6229 17.259 98.6878 16.6749 98.5117 16.1529C98.2409 15.3177 97.6244 14.6526 96.9843 14.0749C96.5115 13.6465 95.9775 13.296 95.4551 12.934Z" fill="#F55229"/>
<path d="M115.376 14.8443C115.402 14.8304 115.453 14.8032 115.479 14.7893C115.73 14.8425 115.923 15.031 116.104 15.2025C116.628 15.7555 116.992 16.4364 117.301 17.1267C117.505 17.6083 117.731 18.0911 117.804 18.6137C117.826 18.8377 117.847 19.1035 117.681 19.2813C117.575 19.349 117.461 19.2642 117.383 19.1978C116.702 18.5302 116.363 17.6133 115.933 16.7825C115.707 16.2997 115.462 15.8182 115.335 15.298C115.313 15.1506 115.268 14.969 115.376 14.8443Z" fill="#F55229"/>
<path d="M69.6948 16.4921C70.8408 16.2877 72.0529 16.2965 73.1493 16.7224C74.1122 17.0824 74.9442 17.7386 75.5855 18.5327C76.3851 19.5224 76.9184 20.7018 77.2731 21.9155C77.6544 23.2481 77.8375 24.637 77.8184 26.0221C77.7472 27.256 77.5826 28.4892 77.2546 29.6833C76.9445 30.8032 76.4817 31.8967 75.7737 32.8274C75.1514 33.6494 74.3226 34.3252 73.3648 34.7219C72.2792 35.1794 71.0658 35.2889 69.9026 35.1377C70.9151 35.0402 71.9181 34.7143 72.7374 34.1025C73.666 33.4191 74.3347 32.4396 74.7923 31.3949C75.3853 30.037 75.6822 28.5702 75.8544 27.106C76.0406 25.6798 76.0139 24.232 75.8347 22.807C75.6783 21.632 75.3904 20.4588 74.8413 19.4002C74.3696 18.491 73.6768 17.6779 72.7819 17.1596C71.8584 16.6085 70.7594 16.4237 69.6948 16.4921Z" fill="#F55229"/>
<path d="M31.3902 19.6641C31.9216 20.5721 32.493 21.4713 33.2411 22.2211C33.6771 22.6501 34.1831 23.019 34.7589 23.2386C35.364 23.4765 36.0187 23.5366 36.6619 23.5828C44.4582 24.0542 52.2564 24.4946 60.0533 24.9483C60.5262 24.992 61.0048 24.9685 61.4739 25.0514C57.7804 24.9698 54.085 24.935 50.3909 24.8679C45.6462 24.8009 40.902 24.7205 36.1573 24.6528C35.5433 24.6269 34.9185 24.6838 34.314 24.5547C33.407 24.3522 32.6996 23.6018 32.4186 22.7387C32.0805 21.7123 31.7125 20.6949 31.3902 19.6641Z" fill="#F55229"/>
<path d="M36.9829 26.0917C37.2568 26.0594 37.5289 25.9943 37.8066 25.9968C42.955 26.1986 48.1053 26.3828 53.2556 26.5346C55.1204 26.5808 56.9853 26.6435 58.8514 26.6492C59.0599 26.6536 59.2684 26.6732 59.4756 26.7004C58.7357 26.6808 57.9978 26.7624 57.2586 26.7719C52.5787 26.9611 47.8936 26.9731 43.2112 26.9529C39.5202 26.9345 35.8299 26.8706 32.1409 26.7839C33.7528 26.5397 35.3691 26.3246 36.9829 26.0917Z" fill="#F55229"/>
<path d="M80.2553 26.6574C80.2985 26.546 80.4225 26.565 80.5191 26.565C83.2808 26.6966 86.0456 26.8149 88.8111 26.7504C89.2433 27.5996 89.9826 28.2969 90.8858 28.6253C91.4699 28.848 92.101 28.9366 92.7258 28.9088C97.7178 29.2232 102.72 29.482 107.725 29.4112C109.507 29.3447 111.287 29.2384 113.063 29.0752C114.444 28.9398 115.824 28.7778 117.183 28.4918C117.767 28.3627 118.353 28.2209 118.907 27.9894C119.194 27.8634 119.497 27.7211 119.672 27.4477C119.958 27.8128 120.085 28.2671 120.216 28.7044C120.336 29.1176 120.256 29.5896 119.97 29.9186C119.557 30.4008 118.946 30.6451 118.358 30.8431C117.131 31.2297 115.848 31.3974 114.575 31.5467C111.268 31.8935 107.94 31.9916 104.619 32.1029C97.7477 32.3269 90.8654 32.1245 84.0168 31.5467C82.9128 31.4474 81.8094 31.3462 80.7091 31.2164C80.6233 31.1924 80.4816 31.2057 80.467 31.0899C80.4701 29.6111 80.3907 28.1298 80.2553 26.6574Z" fill="#F55229"/>
<path d="M75.44 34.0575C77.3023 32.4598 78.257 30.0034 78.3619 27.5951C78.5271 28.2602 78.5201 28.9518 78.564 29.632C78.5856 30.5369 78.6148 31.4442 78.5621 32.3484C78.6008 32.5351 78.8347 32.5857 78.9975 32.6218C79.7894 32.7414 80.5941 32.7306 81.3924 32.7926C81.1674 33.1666 80.8286 33.4526 80.5223 33.7576C80.0487 34.2107 79.5542 34.6428 79.047 35.0586C78.4655 35.53 77.669 35.4971 76.9648 35.5863C75.4502 35.6932 73.9234 35.8065 72.4075 35.6673C73.5148 35.3458 74.566 34.8118 75.44 34.0575Z" fill="#F55229"/>
<path d="M20.1941 28.8379C21.5975 28.9461 22.9946 29.1245 24.3967 29.2536C30.876 29.9047 37.3592 30.5255 43.8474 31.088C48.1873 31.4588 52.5291 31.8138 56.8779 32.0637C57.9451 32.1061 59.0103 32.1865 60.0781 32.1947C58.355 32.2194 56.6313 32.1725 54.9081 32.1599C50.5428 32.1238 46.1782 32.0884 41.8128 32.0707C41.5001 32.0637 41.1874 32.0808 40.876 32.058C33.981 30.9899 27.0898 29.8997 20.1941 28.8379Z" fill="#F55229"/>
<path d="M108.364 33.1375C109.715 33.1002 111.064 33.0388 112.41 32.9255C112.179 33.3463 111.785 33.6431 111.424 33.9468C109.749 35.2465 107.701 36.1235 105.569 36.2469C104.208 36.3241 102.831 36.0571 101.599 35.4768C100.411 34.9257 99.357 34.1139 98.4501 33.1767C101.755 33.2172 105.06 33.2242 108.364 33.1375Z" fill="#F55229"/>
</svg>
