<svg width="33" height="32" viewBox="0 0 33 32" fill="none" xmlns="http://www.w3.org/2000/svg">
<rect x="0.714294" width="32" height="32" rx="8" fill="url(#paint0_linear_118015_2)"/>
<g clip-path="url(#clip0_118015_2)">
<g filter="url(#filter0_d_118015_2)">
<path d="M20.5403 11.79C20.7229 11.6057 20.9711 11.5011 21.2306 11.4992C21.4902 11.4973 21.7399 11.5982 21.9252 11.7798C22.1106 11.9615 22.2165 12.2091 22.2198 12.4686C22.2231 12.7281 22.1236 12.9784 21.9429 13.1647L16.7163 19.6987C16.6265 19.7954 16.5181 19.873 16.3977 19.9268C16.2773 19.9807 16.1472 20.0098 16.0153 20.0122C15.8834 20.0147 15.7523 19.9906 15.6299 19.9413C15.5075 19.892 15.3963 19.8186 15.3029 19.7254L11.8376 16.2614C11.6535 16.0771 11.55 15.8273 11.5501 15.5668C11.5502 15.3063 11.6537 15.0565 11.8379 14.8724C12.0222 14.6882 12.272 14.5848 12.5325 14.5849C12.793 14.5849 13.0428 14.6885 13.2269 14.8727L15.9676 17.614L20.5143 11.8207C20.5225 11.8102 20.5314 11.8001 20.5409 11.7907L20.5403 11.79Z" fill="white"/>
</g>
</g>
<defs>
<filter id="filter0_d_118015_2" x="11.5501" y="11.4992" width="10.6698" height="10.5132" filterUnits="userSpaceOnUse" color-interpolation-filters="sRGB">
<feFlood flood-opacity="0" result="BackgroundImageFix"/>
<feColorMatrix in="SourceAlpha" type="matrix" values="0 0 0 0 0 0 0 0 0 0 0 0 0 0 0 0 0 0 127 0" result="hardAlpha"/>
<feOffset dy="2"/>
<feColorMatrix type="matrix" values="0 0 0 0 0 0 0 0 0 0 0 0 0 0 0 0 0 0 0.1 0"/>
<feBlend mode="normal" in2="BackgroundImageFix" result="effect1_dropShadow_118015_2"/>
<feBlend mode="normal" in="SourceGraphic" in2="effect1_dropShadow_118015_2" result="shape"/>
</filter>
<linearGradient id="paint0_linear_118015_2" x1="16.7143" y1="0" x2="16.7143" y2="32" gradientUnits="userSpaceOnUse">
<stop stop-color="#89F09C"/>
<stop offset="1" stop-color="#3CC755"/>
</linearGradient>
<clipPath id="clip0_118015_2">
<rect width="10.836" height="10.836" fill="white" transform="translate(11.5503 10.836)"/>
</clipPath>
</defs>
</svg>
