<svg width="11" height="11" viewBox="0 0 11 11" fill="none" xmlns="http://www.w3.org/2000/svg">
<g filter="url(#filter0_d_117964_5)">
<path d="M8.99017 0.290858C9.17282 0.106499 9.42103 0.0019382 9.68054 2.66745e-05C9.94005 -0.00188485 10.1898 0.0990082 10.3751 0.280656C10.5605 0.462304 10.6664 0.709937 10.6697 0.969434C10.673 1.22893 10.5735 1.47919 10.3928 1.66552L5.16617 8.19952C5.07638 8.2962 4.96803 8.37379 4.84759 8.42766C4.72715 8.48153 4.59709 8.51058 4.46517 8.51306C4.33325 8.51555 4.20219 8.49143 4.0798 8.44214C3.95741 8.39286 3.84621 8.31941 3.75284 8.22619L0.287505 4.76219C0.103356 4.57795 -6.24838e-05 4.32811 2.8323e-08 4.06762C6.25404e-05 3.80713 0.103601 3.55734 0.287838 3.37319C0.472075 3.18904 0.721919 3.08562 0.982407 3.08569C1.24289 3.08575 1.49269 3.18929 1.67684 3.37352L4.4175 6.11486L8.96417 0.321524C8.97243 0.310983 8.98067 0.300297 8.99017 0.290858Z" fill="white"/>
</g>
<defs>
<filter id="filter0_d_117964_5" x="0" y="0" width="10.6698" height="10.5132" filterUnits="userSpaceOnUse" color-interpolation-filters="sRGB">
<feFlood flood-opacity="0" result="BackgroundImageFix"/>
<feColorMatrix in="SourceAlpha" type="matrix" values="0 0 0 0 0 0 0 0 0 0 0 0 0 0 0 0 0 0 127 0" result="hardAlpha"/>
<feOffset dy="2"/>
<feColorMatrix type="matrix" values="0 0 0 0 0 0 0 0 0 0 0 0 0 0 0 0 0 0 0.1 0"/>
<feBlend mode="normal" in2="BackgroundImageFix" result="effect1_dropShadow_117964_5"/>
<feBlend mode="normal" in="SourceGraphic" in2="effect1_dropShadow_117964_5" result="shape"/>
</filter>
</defs>
</svg>
