<svg width="13" height="12" viewBox="0 0 13 12" fill="none" xmlns="http://www.w3.org/2000/svg">
<g clip-path="url(#clip0_60_202)">
<g filter="url(#filter0_d_60_202)">
<path d="M9.8789 1.62072C10.0616 1.43636 10.3098 1.3318 10.5693 1.32989C10.8288 1.32798 11.0785 1.42887 11.2638 1.61052C11.4492 1.79217 11.5551 2.0398 11.5584 2.2993C11.5617 2.5588 11.4622 2.80906 11.2816 2.99539L6.0549 9.52939C5.96511 9.62606 5.85676 9.70365 5.73632 9.75752C5.61588 9.81139 5.48582 9.84044 5.3539 9.84293C5.22198 9.84542 5.09092 9.8213 4.96853 9.77201C4.84614 9.72272 4.73494 9.64927 4.64157 9.55605L1.17624 6.09205C0.992089 5.90782 0.88867 5.65797 0.888733 5.39749C0.888795 5.137 0.992334 4.8872 1.17657 4.70306C1.36081 4.51891 1.61065 4.41549 1.87114 4.41555C2.13163 4.41561 2.38142 4.51915 2.56557 4.70339L5.30624 7.44472L9.8529 1.65139C9.86116 1.64085 9.87007 1.63083 9.87957 1.62139L9.8789 1.62072Z" fill="white"/>
</g>
</g>
<defs>
<filter id="filter0_d_60_202" x="0.888733" y="1.32986" width="10.6698" height="10.5132" filterUnits="userSpaceOnUse" color-interpolation-filters="sRGB">
<feFlood flood-opacity="0" result="BackgroundImageFix"/>
<feColorMatrix in="SourceAlpha" type="matrix" values="0 0 0 0 0 0 0 0 0 0 0 0 0 0 0 0 0 0 127 0" result="hardAlpha"/>
<feOffset dy="2"/>
<feColorMatrix type="matrix" values="0 0 0 0 0 0 0 0 0 0 0 0 0 0 0 0 0 0 0.1 0"/>
<feBlend mode="normal" in2="BackgroundImageFix" result="effect1_dropShadow_60_202"/>
<feBlend mode="normal" in="SourceGraphic" in2="effect1_dropShadow_60_202" result="shape"/>
</filter>
<clipPath id="clip0_60_202">
<rect width="11.1746" height="10.6667" fill="white" transform="translate(0.888916 0.666718)"/>
</clipPath>
</defs>
</svg>
