<svg width="122" height="45" viewBox="0 0 122 45" fill="none" xmlns="http://www.w3.org/2000/svg">
<g clip-path="url(#clip0_117916_352)">
<path d="M62.5572 14.905L68.322 14.5324C68.4535 15.4749 68.6946 16.1763 69.0891 16.6805C69.7248 17.4695 70.6016 17.8641 71.7633 17.8641C72.6181 17.8641 73.2976 17.6668 73.7579 17.2504C74.1963 16.9216 74.4593 16.3955 74.4593 15.8475C74.4593 15.3215 74.2182 14.8173 73.8018 14.4885C73.3634 14.094 72.3332 13.6995 70.7112 13.3487C68.0589 12.7569 66.152 11.9678 65.0341 10.9596C63.9162 10.017 63.2806 8.63613 63.3244 7.16755C63.3244 6.15927 63.6313 5.15099 64.2012 4.31806C64.8587 3.37554 65.7574 2.63029 66.8315 2.21383C67.9932 1.70969 69.6152 1.44666 71.6537 1.44666C74.1525 1.44666 76.0594 1.90696 77.3746 2.84948C78.6897 3.77008 79.4788 5.26059 79.7199 7.29907L74.0209 7.62785C73.8675 6.75109 73.5606 6.11543 73.0565 5.69897C72.5524 5.2825 71.8948 5.08523 71.0399 5.08523C70.3385 5.08523 69.8125 5.23867 69.4618 5.52362C69.133 5.78664 68.9138 6.18119 68.9357 6.61957C68.9357 6.94836 69.1111 7.25523 69.3741 7.4525C69.659 7.71553 70.3385 7.95664 71.4126 8.17583C74.0648 8.74573 75.9498 9.31563 77.1115 9.90744C78.2733 10.4993 79.1062 11.2226 79.6103 12.0774C80.1364 12.9542 80.3994 13.9625 80.3775 14.9927C80.3775 16.2202 80.0268 17.4476 79.3254 18.4778C78.602 19.5519 77.5938 20.3848 76.4101 20.8889C75.1607 21.4369 73.5826 21.7219 71.6975 21.7219C68.3658 21.7219 66.0643 21.0862 64.7711 19.793C63.4778 18.4997 62.7107 16.8777 62.5572 14.905ZM1.38091 21.3931V1.79736H11.4856C13.3488 1.79736 14.7954 1.9508 15.7818 2.27958C16.7462 2.58645 17.6011 3.22211 18.171 4.07695C18.8066 5.01948 19.1135 6.11543 19.0916 7.25523C19.1573 9.18411 18.171 11.0253 16.4832 11.9898C15.8256 12.3624 15.1023 12.6254 14.357 12.7569C14.905 12.9104 15.453 13.1734 15.9352 13.4803C16.3078 13.7871 16.6147 14.1378 16.8997 14.5105C17.2284 14.8831 17.5134 15.2996 17.7545 15.7379L20.6917 21.415H13.8091L10.565 15.3872C10.1486 14.6201 9.79786 14.1159 9.46907 13.8748C9.03069 13.5679 8.50463 13.4145 7.97857 13.4145H7.45251V21.3712H1.38091V21.3931ZM7.45251 9.73209H10.017C10.565 9.68825 11.0911 9.60058 11.6171 9.46906C12.0117 9.4033 12.3624 9.18411 12.6035 8.85533C13.1953 8.06624 13.1076 6.94836 12.3843 6.26887C11.9898 5.94008 11.2226 5.76473 10.1266 5.76473H7.45251V9.73209ZM0 38.1831L5.76473 37.8105C5.89625 38.753 6.13736 39.4544 6.5319 39.9586C7.14564 40.7477 8.04432 41.1641 9.20604 41.1641C10.0609 41.1641 10.7404 40.9669 11.2007 40.5504C11.6391 40.1997 11.9021 39.6956 11.9021 39.1476C11.9021 38.6215 11.661 38.1174 11.2445 37.7886C10.8061 37.394 9.77594 36.9995 8.132 36.6488C5.47978 36.057 3.57282 35.2679 2.45494 34.2596C1.33707 33.3171 0.701413 31.9362 0.745251 30.4676C0.745251 29.4593 1.05212 28.451 1.62202 27.6181C2.27959 26.6756 3.17828 25.9303 4.25231 25.5139C5.41403 25.0097 7.03604 24.7467 9.07452 24.7467C11.5733 24.7467 13.4803 25.207 14.7954 26.1495C16.1106 27.0921 16.8777 28.5606 17.1188 30.5991L11.4199 30.9279C11.2664 30.0511 10.9596 29.4155 10.4554 28.999C9.97321 28.5826 9.29372 28.3853 8.43887 28.4072C7.73746 28.4072 7.2114 28.5606 6.86069 28.8675C6.50998 29.1305 6.31271 29.5251 6.33463 29.9635C6.33463 30.2922 6.50998 30.5991 6.77301 30.7964C7.05796 31.0594 7.73746 31.3005 8.81149 31.5197C11.4637 32.0896 13.3488 32.6595 14.5105 33.2513C15.6722 33.8431 16.5051 34.5665 17.0093 35.4213C17.5353 36.2981 17.7983 37.3064 17.7983 38.3146C17.7983 39.5421 17.4257 40.7477 16.7462 41.7779C16.0229 42.8519 15.0146 43.6848 13.831 44.189C12.5816 44.737 11.0034 45.0219 9.11836 45.0219C5.78665 45.0219 3.48514 44.3862 2.19191 43.093C0.898685 41.7779 0.175353 40.1559 0 38.1831H0Z" fill="black"/>
<path d="M29.1524 36.6488L34.4569 38.2489C34.1719 39.586 33.5801 40.8573 32.7691 41.9752C32.0238 42.9615 31.0375 43.7287 29.9196 44.2328C28.7798 44.737 27.3331 45 25.5796 45C23.4535 45 21.6999 44.6931 20.3629 44.0794C19.0039 43.4657 17.8422 42.3697 16.8558 40.8134C15.8694 39.2572 15.3872 37.2625 15.3872 34.8295C15.3872 31.5855 16.2421 29.0867 17.9737 27.3551C19.7053 25.6235 22.1383 24.7467 25.2947 24.7467C27.7715 24.7467 29.7004 25.2508 31.1252 26.2372C32.528 27.2455 33.5801 28.7798 34.2815 30.8402L28.9332 32.0239C28.8017 31.5636 28.6045 31.1033 28.3414 30.7087C28.0126 30.2484 27.5962 29.8977 27.092 29.6347C26.5879 29.3716 26.018 29.262 25.4481 29.262C24.0672 29.262 23.0151 29.81 22.2917 30.9279C21.7438 31.7389 21.4588 33.0321 21.4588 34.7857C21.4588 36.9557 21.7876 38.4462 22.4452 39.2572C23.1027 40.0682 24.0233 40.4627 25.2289 40.4627C26.3906 40.4627 27.2674 40.1339 27.8592 39.4983C28.451 38.8188 28.8894 37.8763 29.1524 36.6488ZM41.5367 25.0755H47.5864V31.9362H54.206V25.0755H60.2995V44.6712H54.206V36.7365H47.5864V44.6712H41.5367V25.0755Z" fill="black"/>
<path d="M59.4666 34.8734C59.4666 31.6732 60.3653 29.1744 62.1408 27.3989C63.9162 25.6235 66.415 24.7248 69.5933 24.7248C72.8592 24.7248 75.358 25.6016 77.1334 27.3551C78.9089 29.1086 79.7857 31.5636 79.7857 34.7199C79.7857 37.0214 79.3911 38.8846 78.6239 40.3531C77.8787 41.7998 76.717 42.9834 75.2922 43.7725C73.8237 44.5835 72.0044 45 69.8344 45C67.6205 45 65.8012 44.6493 64.3546 43.9479C62.8641 43.2026 61.6366 42.0409 60.8256 40.6162C59.9269 39.0818 59.4666 37.1749 59.4666 34.8734ZM65.5163 34.8953C65.5163 36.868 65.8889 38.2927 66.6123 39.1695C67.3356 40.0244 68.3439 40.4627 69.6152 40.4627C70.9084 40.4627 71.9167 40.0463 72.64 39.1914C73.3633 38.3366 73.7141 36.8242 73.7141 34.6322C73.7141 32.791 73.3414 31.4321 72.5962 30.5991C71.8509 29.7443 70.8426 29.3278 69.5713 29.3278C68.4535 29.284 67.3794 29.7662 66.6342 30.621C65.8889 31.4759 65.5163 32.9006 65.5163 34.8953ZM85.9888 34.8734C85.9888 31.6732 86.8875 29.1744 88.6629 27.3989C90.4384 25.6235 92.9371 24.7248 96.1154 24.7248C99.3814 24.7248 101.902 25.6016 103.656 27.3551C105.409 29.1086 106.308 31.5636 106.308 34.7199C106.308 37.0214 105.913 38.8846 105.146 40.3531C104.401 41.7998 103.239 42.9834 101.814 43.7725C100.346 44.5835 98.5265 45 96.3565 45C94.1427 45 92.3234 44.6493 90.8767 43.9479C89.3862 43.2026 88.1588 42.0409 87.3478 40.6162C86.4491 39.0818 85.9888 37.1749 85.9888 34.8734ZM92.0385 34.8953C92.0385 36.868 92.4111 38.2927 93.1344 39.1695C93.8577 40.0244 94.866 40.4627 96.1373 40.4627C97.4306 40.4627 98.4388 40.0463 99.1622 39.1914C99.8855 38.3366 100.236 36.8242 100.236 34.6322C100.236 32.791 99.8636 31.4321 99.1183 30.5991C98.3731 29.7443 97.3648 29.3278 96.0935 29.3278C94.9756 29.284 93.8797 29.7662 93.1563 30.621C92.4111 31.4759 92.0385 32.9006 92.0385 34.8953Z" fill="black"/>
<path d="M105.672 25.0755H111.722V39.849H121.169V44.6712H105.65V25.0755H105.672Z" fill="black"/>
<path d="M99.0041 23.9446C105.095 19.3547 106.973 11.5742 103.199 6.56623C99.4252 1.55829 91.4284 1.21938 85.3376 5.80924C79.2469 10.3991 77.3687 18.1797 81.1426 23.1876C84.9165 28.1956 92.9134 28.5345 99.0041 23.9446Z" fill="white"/>
<path d="M99.0041 23.9447C105.095 19.3548 106.973 11.5742 103.199 6.56629C99.4252 1.55835 91.4284 1.21944 85.3376 5.8093C79.2469 10.3992 77.3687 18.1797 81.1426 23.1877C84.9165 28.1956 92.9134 28.5345 99.0041 23.9447Z" fill="white"/>
<path d="M99.0041 23.9447C105.095 19.3548 106.973 11.5742 103.199 6.56629C99.4252 1.55835 91.4284 1.21944 85.3376 5.8093C79.2469 10.3992 77.3687 18.1797 81.1426 23.1877C84.9165 28.1956 92.9134 28.5345 99.0041 23.9447Z" fill="white" stroke="black" stroke-width="4" stroke-miterlimit="10"/>
<path d="M99.0041 23.9447C105.095 19.3548 106.973 11.5742 103.199 6.56629C99.4252 1.55835 91.4284 1.21944 85.3376 5.8093C79.2469 10.3992 77.3687 18.1797 81.1426 23.1877C84.9165 28.1956 92.9134 28.5345 99.0041 23.9447Z" stroke="black" stroke-width="4" stroke-miterlimit="10"/>
<path d="M99.0041 23.9447C105.095 19.3548 106.973 11.5742 103.199 6.56629C99.4252 1.55835 91.4284 1.21944 85.3376 5.8093C79.2469 10.3992 77.3687 18.1797 81.1426 23.1877C84.9165 28.1956 92.9134 28.5345 99.0041 23.9447Z" fill="white" stroke="black" stroke-width="4" stroke-miterlimit="10"/>
<path d="M99.0041 23.9447C105.095 19.3548 106.973 11.5742 103.199 6.56629C99.4252 1.55835 91.4284 1.21944 85.3376 5.8093C79.2469 10.3992 77.3687 18.1797 81.1426 23.1877C84.9165 28.1956 92.9134 28.5345 99.0041 23.9447Z" stroke="black" stroke-width="4" stroke-miterlimit="10"/>
<path d="M86.0107 13.4364L88.2026 11.9021L90.8987 15.738C91.359 16.3517 91.7097 17.0093 91.9727 17.7326C92.1261 18.2806 92.0823 18.8724 91.8631 19.3985C91.5782 20.056 91.1179 20.604 90.5041 20.9986C89.7808 21.5027 89.1671 21.7876 88.641 21.8753C88.1369 21.963 87.6108 21.8753 87.1286 21.6561C86.6025 21.3931 86.1422 21.0205 85.7915 20.5383L87.6766 18.7847C87.83 19.0258 88.0273 19.245 88.2465 19.4204C88.3999 19.53 88.5752 19.5957 88.7725 19.5957C88.9259 19.5957 89.0794 19.53 89.189 19.4423C89.4082 19.3108 89.5616 19.0477 89.5397 18.7847C89.4739 18.4121 89.3205 18.0395 89.0794 17.7545L86.0107 13.4364ZM92.5864 15.8695L94.5811 14.2913C94.8003 14.5543 95.0852 14.7516 95.3921 14.8612C95.8305 14.9927 96.2908 14.905 96.6634 14.6201C96.9264 14.4447 97.1456 14.2036 97.2333 13.8968C97.3648 13.5022 97.1456 13.0638 96.7511 12.9323C96.6853 12.9104 96.6196 12.8885 96.5538 12.8885C96.2908 12.8666 95.8305 12.9761 95.151 13.2611C94.0331 13.7214 93.1563 13.8968 92.4988 13.831C91.8631 13.7652 91.2713 13.4364 90.9206 12.8885C90.6576 12.5158 90.526 12.0775 90.5041 11.6391C90.5041 11.1349 90.6356 10.6308 90.9206 10.2143C91.337 9.62252 91.8412 9.11838 92.4549 8.72383C93.3755 8.08818 94.1865 7.78131 94.8879 7.78131C95.5894 7.78131 96.2469 8.1101 96.8607 8.78959L94.8879 10.3459C94.4934 9.84171 93.7482 9.73211 93.244 10.1267L93.1783 10.1924C92.9591 10.3239 92.8056 10.5212 92.718 10.7623C92.6522 10.9377 92.696 11.1349 92.8056 11.2884C92.8933 11.398 93.0248 11.4856 93.1783 11.4856C93.3536 11.5076 93.6605 11.4199 94.0989 11.2226C95.1948 10.7623 96.0277 10.4993 96.5976 10.4116C97.0799 10.3239 97.584 10.3678 98.0443 10.565C98.4608 10.7404 98.8115 11.0473 99.0526 11.4199C99.3595 11.8583 99.5348 12.3843 99.5567 12.9323C99.5786 13.5022 99.4252 14.0502 99.1183 14.5324C98.7238 15.1242 98.2197 15.6284 97.6278 16.0229C96.4223 16.8558 95.4359 17.2065 94.6468 17.075C93.792 16.9435 93.0906 16.5051 92.5864 15.8695Z" fill="black"/>
</g>
<defs>
<clipPath id="clip0_117916_352">
<rect width="121.169" height="45" fill="white"/>
</clipPath>
</defs>
</svg>
