<svg width="45" height="12" viewBox="0 0 45 12" fill="none" xmlns="http://www.w3.org/2000/svg">
<path d="M8.05824 0.272727V9H6.46449L2.66761 3.5071H2.60369V9H0.758523V0.272727H2.37784L6.14489 5.76136H6.22159V0.272727H8.05824ZM12.506 9.12784C11.8441 9.12784 11.2717 8.98722 10.7887 8.70597C10.3086 8.42187 9.93786 8.02699 9.67649 7.52131C9.41513 7.01278 9.28445 6.4233 9.28445 5.75284C9.28445 5.0767 9.41513 4.4858 9.67649 3.98011C9.93786 3.47159 10.3086 3.0767 10.7887 2.79545C11.2717 2.51136 11.8441 2.36932 12.506 2.36932C13.168 2.36932 13.739 2.51136 14.2191 2.79545C14.7021 3.0767 15.0742 3.47159 15.3356 3.98011C15.5969 4.4858 15.7276 5.0767 15.7276 5.75284C15.7276 6.4233 15.5969 7.01278 15.3356 7.52131C15.0742 8.02699 14.7021 8.42187 14.2191 8.70597C13.739 8.98722 13.168 9.12784 12.506 9.12784ZM12.5146 7.72159C12.8157 7.72159 13.0671 7.63636 13.2688 7.46591C13.4705 7.29261 13.6225 7.05682 13.7248 6.75852C13.8299 6.46023 13.8825 6.12074 13.8825 5.74006C13.8825 5.35938 13.8299 5.01989 13.7248 4.72159C13.6225 4.4233 13.4705 4.1875 13.2688 4.0142C13.0671 3.84091 12.8157 3.75426 12.5146 3.75426C12.2106 3.75426 11.9549 3.84091 11.7475 4.0142C11.543 4.1875 11.3881 4.4233 11.283 4.72159C11.1808 5.01989 11.1296 5.35938 11.1296 5.74006C11.1296 6.12074 11.1808 6.46023 11.283 6.75852C11.3881 7.05682 11.543 7.29261 11.7475 7.46591C11.9549 7.63636 12.2106 7.72159 12.5146 7.72159ZM21.5007 0.272727V9H19.6854V0.272727H21.5007ZM25.9123 9.12784C25.2504 9.12784 24.6779 8.98722 24.195 8.70597C23.7148 8.42187 23.3441 8.02699 23.0827 7.52131C22.8214 7.01278 22.6907 6.4233 22.6907 5.75284C22.6907 5.0767 22.8214 4.4858 23.0827 3.98011C23.3441 3.47159 23.7148 3.0767 24.195 2.79545C24.6779 2.51136 25.2504 2.36932 25.9123 2.36932C26.5742 2.36932 27.1452 2.51136 27.6254 2.79545C28.1083 3.0767 28.4805 3.47159 28.7418 3.98011C29.0032 4.4858 29.1339 5.0767 29.1339 5.75284C29.1339 6.4233 29.0032 7.01278 28.7418 7.52131C28.4805 8.02699 28.1083 8.42187 27.6254 8.70597C27.1452 8.98722 26.5742 9.12784 25.9123 9.12784ZM25.9208 7.72159C26.2219 7.72159 26.4734 7.63636 26.6751 7.46591C26.8768 7.29261 27.0288 7.05682 27.131 6.75852C27.2362 6.46023 27.2887 6.12074 27.2887 5.74006C27.2887 5.35938 27.2362 5.01989 27.131 4.72159C27.0288 4.4233 26.8768 4.1875 26.6751 4.0142C26.4734 3.84091 26.2219 3.75426 25.9208 3.75426C25.6168 3.75426 25.3612 3.84091 25.1538 4.0142C24.9492 4.1875 24.7944 4.4233 24.6893 4.72159C24.587 5.01989 24.5359 5.35938 24.5359 5.74006C24.5359 6.12074 24.587 6.46023 24.6893 6.75852C24.7944 7.05682 24.9492 7.29261 25.1538 7.46591C25.3612 7.63636 25.6168 7.72159 25.9208 7.72159ZM33.2631 11.5909C32.6751 11.5909 32.1708 11.5099 31.7504 11.348C31.3327 11.1889 31.0004 10.9716 30.7532 10.696C30.506 10.4205 30.3455 10.1108 30.2717 9.76705L31.9506 9.54119C32.0018 9.67188 32.0827 9.79403 32.1935 9.90767C32.3043 10.0213 32.4506 10.1122 32.6325 10.1804C32.8171 10.2514 33.0415 10.2869 33.3058 10.2869C33.7006 10.2869 34.0259 10.1903 34.2816 9.99716C34.5401 9.80682 34.6694 9.48722 34.6694 9.03835V7.84091H34.5927C34.5131 8.02273 34.3938 8.1946 34.2347 8.35653C34.0756 8.51847 33.8711 8.65057 33.6211 8.75284C33.3711 8.85511 33.0728 8.90625 32.7262 8.90625C32.2347 8.90625 31.7873 8.79261 31.3839 8.56534C30.9833 8.33523 30.6637 7.98437 30.4251 7.51278C30.1893 7.03835 30.0714 6.43892 30.0714 5.71449C30.0714 4.97301 30.1921 4.35369 30.4336 3.85653C30.6751 3.35937 30.9961 2.98722 31.3967 2.74006C31.8001 2.4929 32.2418 2.36932 32.7219 2.36932C33.0884 2.36932 33.3952 2.43182 33.6424 2.55682C33.8896 2.67898 34.0884 2.83239 34.239 3.01705C34.3924 3.19886 34.5103 3.37784 34.5927 3.55398H34.6609V2.45455H36.4634V9.06392C36.4634 9.62074 36.3271 10.0866 36.0543 10.4616C35.7816 10.8366 35.4038 11.1179 34.9208 11.3054C34.4407 11.4957 33.8881 11.5909 33.2631 11.5909ZM33.3015 7.54261C33.5941 7.54261 33.8413 7.47017 34.043 7.32528C34.2475 7.17756 34.4038 6.96733 34.5117 6.6946C34.6225 6.41903 34.6779 6.08949 34.6779 5.70597C34.6779 5.32244 34.6239 4.99006 34.516 4.70881C34.408 4.42472 34.2518 4.20455 34.0472 4.0483C33.8427 3.89205 33.5941 3.81392 33.3015 3.81392C33.0032 3.81392 32.7518 3.89489 32.5472 4.05682C32.3427 4.21591 32.1879 4.4375 32.0827 4.72159C31.9776 5.00568 31.9251 5.33381 31.9251 5.70597C31.9251 6.08381 31.9776 6.41051 32.0827 6.68608C32.1907 6.95881 32.3455 7.17045 32.5472 7.32102C32.7518 7.46875 33.0032 7.54261 33.3015 7.54261ZM40.8654 9.12784C40.2035 9.12784 39.631 8.98722 39.1481 8.70597C38.668 8.42187 38.2972 8.02699 38.0359 7.52131C37.7745 7.01278 37.6438 6.4233 37.6438 5.75284C37.6438 5.0767 37.7745 4.4858 38.0359 3.98011C38.2972 3.47159 38.668 3.0767 39.1481 2.79545C39.631 2.51136 40.2035 2.36932 40.8654 2.36932C41.5273 2.36932 42.0984 2.51136 42.5785 2.79545C43.0614 3.0767 43.4336 3.47159 43.695 3.98011C43.9563 4.4858 44.087 5.0767 44.087 5.75284C44.087 6.4233 43.9563 7.01278 43.695 7.52131C43.4336 8.02699 43.0614 8.42187 42.5785 8.70597C42.0984 8.98722 41.5273 9.12784 40.8654 9.12784ZM40.8739 7.72159C41.1751 7.72159 41.4265 7.63636 41.6282 7.46591C41.8299 7.29261 41.9819 7.05682 42.0842 6.75852C42.1893 6.46023 42.2418 6.12074 42.2418 5.74006C42.2418 5.35938 42.1893 5.01989 42.0842 4.72159C41.9819 4.4233 41.8299 4.1875 41.6282 4.0142C41.4265 3.84091 41.1751 3.75426 40.8739 3.75426C40.57 3.75426 40.3143 3.84091 40.1069 4.0142C39.9023 4.1875 39.7475 4.4233 39.6424 4.72159C39.5401 5.01989 39.489 5.35938 39.489 5.74006C39.489 6.12074 39.5401 6.46023 39.6424 6.75852C39.7475 7.05682 39.9023 7.29261 40.1069 7.46591C40.3143 7.63636 40.57 7.72159 40.8739 7.72159Z" fill="white"/>
</svg>
